<mxfile host="app.diagrams.net" modified="2023-10-31T04:12:50.490Z" agent="Mozilla/5.0 (Windows NT 10.0; Win64; x64) AppleWebKit/537.36 (KHTML, like Gecko) Chrome/115.0.0.0 Safari/537.36" etag="LnHT9sUDfTbLIggnAbMd" version="22.0.8" type="github">
  <diagram id="C5RBs43oDa-KdzZeNtuy" name="Page-1">
    <mxGraphModel dx="836" dy="455" grid="1" gridSize="10" guides="1" tooltips="1" connect="1" arrows="1" fold="1" page="1" pageScale="1" pageWidth="827" pageHeight="1169" math="0" shadow="0">
      <root>
        <mxCell id="WIyWlLk6GJQsqaUBKTNV-0" />
        <mxCell id="WIyWlLk6GJQsqaUBKTNV-1" parent="WIyWlLk6GJQsqaUBKTNV-0" />
        <mxCell id="LBUSXOYxLL9FHg3XURjK-1" style="edgeStyle=orthogonalEdgeStyle;rounded=0;orthogonalLoop=1;jettySize=auto;html=1;exitX=0.5;exitY=1;exitDx=0;exitDy=0;entryX=0.5;entryY=0;entryDx=0;entryDy=0;" edge="1" parent="WIyWlLk6GJQsqaUBKTNV-1" source="WIyWlLk6GJQsqaUBKTNV-3" target="LBUSXOYxLL9FHg3XURjK-0">
          <mxGeometry relative="1" as="geometry" />
        </mxCell>
        <mxCell id="WIyWlLk6GJQsqaUBKTNV-3" value="Log into GitHub" style="rounded=1;whiteSpace=wrap;html=1;fontSize=12;glass=0;strokeWidth=1;shadow=0;" parent="WIyWlLk6GJQsqaUBKTNV-1" vertex="1">
          <mxGeometry x="230" y="20" width="120" height="60" as="geometry" />
        </mxCell>
        <mxCell id="LBUSXOYxLL9FHg3XURjK-7" value="" style="edgeStyle=orthogonalEdgeStyle;rounded=0;orthogonalLoop=1;jettySize=auto;html=1;" edge="1" parent="WIyWlLk6GJQsqaUBKTNV-1" source="LBUSXOYxLL9FHg3XURjK-0" target="LBUSXOYxLL9FHg3XURjK-6">
          <mxGeometry relative="1" as="geometry" />
        </mxCell>
        <mxCell id="LBUSXOYxLL9FHg3XURjK-0" value="Type &quot;Hacktoberfest&quot; into search bar and press enter" style="rounded=1;whiteSpace=wrap;html=1;" vertex="1" parent="WIyWlLk6GJQsqaUBKTNV-1">
          <mxGeometry x="230" y="110" width="120" height="60" as="geometry" />
        </mxCell>
        <mxCell id="LBUSXOYxLL9FHg3XURjK-11" style="edgeStyle=orthogonalEdgeStyle;rounded=0;orthogonalLoop=1;jettySize=auto;html=1;exitX=0.5;exitY=1;exitDx=0;exitDy=0;entryX=0.5;entryY=1;entryDx=0;entryDy=0;" edge="1" parent="WIyWlLk6GJQsqaUBKTNV-1" source="LBUSXOYxLL9FHg3XURjK-3" target="LBUSXOYxLL9FHg3XURjK-6">
          <mxGeometry relative="1" as="geometry" />
        </mxCell>
        <mxCell id="LBUSXOYxLL9FHg3XURjK-57" value="" style="edgeStyle=orthogonalEdgeStyle;rounded=0;orthogonalLoop=1;jettySize=auto;html=1;" edge="1" parent="WIyWlLk6GJQsqaUBKTNV-1" source="LBUSXOYxLL9FHg3XURjK-3" target="LBUSXOYxLL9FHg3XURjK-56">
          <mxGeometry relative="1" as="geometry" />
        </mxCell>
        <mxCell id="LBUSXOYxLL9FHg3XURjK-3" value="Found the repository you want to contribute to?" style="rhombus;whiteSpace=wrap;html=1;" vertex="1" parent="WIyWlLk6GJQsqaUBKTNV-1">
          <mxGeometry x="390" y="200" width="80" height="80" as="geometry" />
        </mxCell>
        <mxCell id="LBUSXOYxLL9FHg3XURjK-8" value="" style="edgeStyle=orthogonalEdgeStyle;rounded=0;orthogonalLoop=1;jettySize=auto;html=1;" edge="1" parent="WIyWlLk6GJQsqaUBKTNV-1" source="LBUSXOYxLL9FHg3XURjK-6" target="LBUSXOYxLL9FHg3XURjK-3">
          <mxGeometry relative="1" as="geometry" />
        </mxCell>
        <mxCell id="LBUSXOYxLL9FHg3XURjK-6" value="scroll through repositories participating in Hacktoberfest" style="rounded=1;whiteSpace=wrap;html=1;" vertex="1" parent="WIyWlLk6GJQsqaUBKTNV-1">
          <mxGeometry x="230" y="210" width="120" height="60" as="geometry" />
        </mxCell>
        <mxCell id="LBUSXOYxLL9FHg3XURjK-33" value="" style="edgeStyle=orthogonalEdgeStyle;rounded=0;orthogonalLoop=1;jettySize=auto;html=1;" edge="1" parent="WIyWlLk6GJQsqaUBKTNV-1" source="LBUSXOYxLL9FHg3XURjK-9" target="LBUSXOYxLL9FHg3XURjK-32">
          <mxGeometry relative="1" as="geometry" />
        </mxCell>
        <mxCell id="LBUSXOYxLL9FHg3XURjK-9" value="Look through pre-requisites to contribute in repository in README.md" style="rounded=1;whiteSpace=wrap;html=1;" vertex="1" parent="WIyWlLk6GJQsqaUBKTNV-1">
          <mxGeometry x="370" y="490" width="120" height="60" as="geometry" />
        </mxCell>
        <mxCell id="LBUSXOYxLL9FHg3XURjK-12" value="No" style="text;html=1;strokeColor=none;fillColor=none;align=center;verticalAlign=middle;whiteSpace=wrap;rounded=0;" vertex="1" parent="WIyWlLk6GJQsqaUBKTNV-1">
          <mxGeometry x="380" y="270" width="60" height="30" as="geometry" />
        </mxCell>
        <mxCell id="LBUSXOYxLL9FHg3XURjK-16" value="Yes" style="text;html=1;strokeColor=none;fillColor=none;align=center;verticalAlign=middle;whiteSpace=wrap;rounded=0;" vertex="1" parent="WIyWlLk6GJQsqaUBKTNV-1">
          <mxGeometry x="450" y="210" width="60" height="30" as="geometry" />
        </mxCell>
        <mxCell id="LBUSXOYxLL9FHg3XURjK-35" style="edgeStyle=orthogonalEdgeStyle;rounded=0;orthogonalLoop=1;jettySize=auto;html=1;exitX=0;exitY=0.5;exitDx=0;exitDy=0;entryX=0;entryY=0.5;entryDx=0;entryDy=0;" edge="1" parent="WIyWlLk6GJQsqaUBKTNV-1" source="LBUSXOYxLL9FHg3XURjK-17" target="LBUSXOYxLL9FHg3XURjK-32">
          <mxGeometry relative="1" as="geometry" />
        </mxCell>
        <mxCell id="LBUSXOYxLL9FHg3XURjK-40" style="edgeStyle=orthogonalEdgeStyle;rounded=0;orthogonalLoop=1;jettySize=auto;html=1;exitX=1;exitY=0.5;exitDx=0;exitDy=0;entryX=0;entryY=0.5;entryDx=0;entryDy=0;" edge="1" parent="WIyWlLk6GJQsqaUBKTNV-1" source="LBUSXOYxLL9FHg3XURjK-17" target="LBUSXOYxLL9FHg3XURjK-36">
          <mxGeometry relative="1" as="geometry" />
        </mxCell>
        <mxCell id="LBUSXOYxLL9FHg3XURjK-17" value="Have you completed these pre-requisites?" style="rhombus;whiteSpace=wrap;html=1;" vertex="1" parent="WIyWlLk6GJQsqaUBKTNV-1">
          <mxGeometry x="220" y="580" width="80" height="80" as="geometry" />
        </mxCell>
        <mxCell id="LBUSXOYxLL9FHg3XURjK-23" value="" style="edgeStyle=orthogonalEdgeStyle;rounded=0;orthogonalLoop=1;jettySize=auto;html=1;" edge="1" parent="WIyWlLk6GJQsqaUBKTNV-1" source="LBUSXOYxLL9FHg3XURjK-19" target="LBUSXOYxLL9FHg3XURjK-22">
          <mxGeometry relative="1" as="geometry" />
        </mxCell>
        <mxCell id="LBUSXOYxLL9FHg3XURjK-19" value="Go to &quot;Issues&quot; tab within repository" style="rounded=1;whiteSpace=wrap;html=1;" vertex="1" parent="WIyWlLk6GJQsqaUBKTNV-1">
          <mxGeometry x="530" y="300" width="120" height="60" as="geometry" />
        </mxCell>
        <mxCell id="LBUSXOYxLL9FHg3XURjK-25" value="" style="edgeStyle=orthogonalEdgeStyle;rounded=0;orthogonalLoop=1;jettySize=auto;html=1;" edge="1" parent="WIyWlLk6GJQsqaUBKTNV-1" source="LBUSXOYxLL9FHg3XURjK-22" target="LBUSXOYxLL9FHg3XURjK-24">
          <mxGeometry relative="1" as="geometry" />
        </mxCell>
        <mxCell id="LBUSXOYxLL9FHg3XURjK-22" value="Look through issues that need to be completed" style="rounded=1;whiteSpace=wrap;html=1;" vertex="1" parent="WIyWlLk6GJQsqaUBKTNV-1">
          <mxGeometry x="530" y="390" width="120" height="60" as="geometry" />
        </mxCell>
        <mxCell id="LBUSXOYxLL9FHg3XURjK-27" value="" style="edgeStyle=orthogonalEdgeStyle;rounded=0;orthogonalLoop=1;jettySize=auto;html=1;" edge="1" parent="WIyWlLk6GJQsqaUBKTNV-1" source="LBUSXOYxLL9FHg3XURjK-24" target="LBUSXOYxLL9FHg3XURjK-9">
          <mxGeometry relative="1" as="geometry" />
        </mxCell>
        <mxCell id="LBUSXOYxLL9FHg3XURjK-55" style="edgeStyle=orthogonalEdgeStyle;rounded=0;orthogonalLoop=1;jettySize=auto;html=1;exitX=1;exitY=0.5;exitDx=0;exitDy=0;entryX=1;entryY=0.5;entryDx=0;entryDy=0;" edge="1" parent="WIyWlLk6GJQsqaUBKTNV-1" source="LBUSXOYxLL9FHg3XURjK-24" target="LBUSXOYxLL9FHg3XURjK-22">
          <mxGeometry relative="1" as="geometry">
            <Array as="points">
              <mxPoint x="670" y="520" />
              <mxPoint x="670" y="420" />
            </Array>
          </mxGeometry>
        </mxCell>
        <mxCell id="LBUSXOYxLL9FHg3XURjK-24" value="Found the issue you want to work on?" style="rhombus;whiteSpace=wrap;html=1;" vertex="1" parent="WIyWlLk6GJQsqaUBKTNV-1">
          <mxGeometry x="550" y="480" width="80" height="80" as="geometry" />
        </mxCell>
        <mxCell id="LBUSXOYxLL9FHg3XURjK-28" value="Yes" style="text;html=1;strokeColor=none;fillColor=none;align=center;verticalAlign=middle;whiteSpace=wrap;rounded=0;" vertex="1" parent="WIyWlLk6GJQsqaUBKTNV-1">
          <mxGeometry x="500" y="520" width="60" height="30" as="geometry" />
        </mxCell>
        <mxCell id="LBUSXOYxLL9FHg3XURjK-29" value="No" style="text;html=1;strokeColor=none;fillColor=none;align=center;verticalAlign=middle;whiteSpace=wrap;rounded=0;" vertex="1" parent="WIyWlLk6GJQsqaUBKTNV-1">
          <mxGeometry x="620" y="490" width="60" height="30" as="geometry" />
        </mxCell>
        <mxCell id="LBUSXOYxLL9FHg3XURjK-34" value="" style="edgeStyle=orthogonalEdgeStyle;rounded=0;orthogonalLoop=1;jettySize=auto;html=1;" edge="1" parent="WIyWlLk6GJQsqaUBKTNV-1" source="LBUSXOYxLL9FHg3XURjK-32" target="LBUSXOYxLL9FHg3XURjK-17">
          <mxGeometry relative="1" as="geometry" />
        </mxCell>
        <mxCell id="LBUSXOYxLL9FHg3XURjK-32" value="Complete a pre-requisite" style="rounded=1;whiteSpace=wrap;html=1;" vertex="1" parent="WIyWlLk6GJQsqaUBKTNV-1">
          <mxGeometry x="200" y="490" width="120" height="60" as="geometry" />
        </mxCell>
        <mxCell id="LBUSXOYxLL9FHg3XURjK-42" value="" style="edgeStyle=orthogonalEdgeStyle;rounded=0;orthogonalLoop=1;jettySize=auto;html=1;" edge="1" parent="WIyWlLk6GJQsqaUBKTNV-1" source="LBUSXOYxLL9FHg3XURjK-36" target="LBUSXOYxLL9FHg3XURjK-41">
          <mxGeometry relative="1" as="geometry" />
        </mxCell>
        <mxCell id="LBUSXOYxLL9FHg3XURjK-36" value="Click &quot;Add File&quot;" style="rounded=1;whiteSpace=wrap;html=1;" vertex="1" parent="WIyWlLk6GJQsqaUBKTNV-1">
          <mxGeometry x="370" y="590" width="120" height="60" as="geometry" />
        </mxCell>
        <mxCell id="LBUSXOYxLL9FHg3XURjK-37" value="No" style="text;html=1;strokeColor=none;fillColor=none;align=center;verticalAlign=middle;whiteSpace=wrap;rounded=0;" vertex="1" parent="WIyWlLk6GJQsqaUBKTNV-1">
          <mxGeometry x="180" y="590" width="60" height="30" as="geometry" />
        </mxCell>
        <mxCell id="LBUSXOYxLL9FHg3XURjK-39" value="Yes" style="text;html=1;strokeColor=none;fillColor=none;align=center;verticalAlign=middle;whiteSpace=wrap;rounded=0;" vertex="1" parent="WIyWlLk6GJQsqaUBKTNV-1">
          <mxGeometry x="290" y="590" width="60" height="30" as="geometry" />
        </mxCell>
        <mxCell id="LBUSXOYxLL9FHg3XURjK-50" value="" style="edgeStyle=orthogonalEdgeStyle;rounded=0;orthogonalLoop=1;jettySize=auto;html=1;" edge="1" parent="WIyWlLk6GJQsqaUBKTNV-1" source="LBUSXOYxLL9FHg3XURjK-41" target="LBUSXOYxLL9FHg3XURjK-43">
          <mxGeometry relative="1" as="geometry" />
        </mxCell>
        <mxCell id="LBUSXOYxLL9FHg3XURjK-41" value="Create a new file for your code" style="rounded=1;whiteSpace=wrap;html=1;" vertex="1" parent="WIyWlLk6GJQsqaUBKTNV-1">
          <mxGeometry x="540" y="590" width="120" height="60" as="geometry" />
        </mxCell>
        <mxCell id="LBUSXOYxLL9FHg3XURjK-45" value="" style="edgeStyle=orthogonalEdgeStyle;rounded=0;orthogonalLoop=1;jettySize=auto;html=1;" edge="1" parent="WIyWlLk6GJQsqaUBKTNV-1" source="LBUSXOYxLL9FHg3XURjK-43" target="LBUSXOYxLL9FHg3XURjK-44">
          <mxGeometry relative="1" as="geometry" />
        </mxCell>
        <mxCell id="LBUSXOYxLL9FHg3XURjK-43" value="Write a line of code" style="rounded=1;whiteSpace=wrap;html=1;" vertex="1" parent="WIyWlLk6GJQsqaUBKTNV-1">
          <mxGeometry x="540" y="690" width="120" height="60" as="geometry" />
        </mxCell>
        <mxCell id="LBUSXOYxLL9FHg3XURjK-52" style="edgeStyle=orthogonalEdgeStyle;rounded=0;orthogonalLoop=1;jettySize=auto;html=1;exitX=0.5;exitY=0;exitDx=0;exitDy=0;entryX=0.5;entryY=0;entryDx=0;entryDy=0;" edge="1" parent="WIyWlLk6GJQsqaUBKTNV-1" source="LBUSXOYxLL9FHg3XURjK-44" target="LBUSXOYxLL9FHg3XURjK-43">
          <mxGeometry relative="1" as="geometry" />
        </mxCell>
        <mxCell id="LBUSXOYxLL9FHg3XURjK-53" value="" style="edgeStyle=orthogonalEdgeStyle;rounded=0;orthogonalLoop=1;jettySize=auto;html=1;" edge="1" parent="WIyWlLk6GJQsqaUBKTNV-1" source="LBUSXOYxLL9FHg3XURjK-44" target="LBUSXOYxLL9FHg3XURjK-46">
          <mxGeometry relative="1" as="geometry" />
        </mxCell>
        <mxCell id="LBUSXOYxLL9FHg3XURjK-44" value="Is your code finished?" style="rhombus;whiteSpace=wrap;html=1;" vertex="1" parent="WIyWlLk6GJQsqaUBKTNV-1">
          <mxGeometry x="400" y="680" width="80" height="80" as="geometry" />
        </mxCell>
        <mxCell id="LBUSXOYxLL9FHg3XURjK-61" value="" style="edgeStyle=orthogonalEdgeStyle;rounded=0;orthogonalLoop=1;jettySize=auto;html=1;" edge="1" parent="WIyWlLk6GJQsqaUBKTNV-1" source="LBUSXOYxLL9FHg3XURjK-46" target="LBUSXOYxLL9FHg3XURjK-54">
          <mxGeometry relative="1" as="geometry" />
        </mxCell>
        <mxCell id="LBUSXOYxLL9FHg3XURjK-46" value="Name the file and end with &quot;.(insert program language file name)&quot;" style="rounded=1;whiteSpace=wrap;html=1;" vertex="1" parent="WIyWlLk6GJQsqaUBKTNV-1">
          <mxGeometry x="380" y="790" width="120" height="60" as="geometry" />
        </mxCell>
        <mxCell id="LBUSXOYxLL9FHg3XURjK-54" value="Click &quot;Commit changes&quot;" style="rounded=1;whiteSpace=wrap;html=1;" vertex="1" parent="WIyWlLk6GJQsqaUBKTNV-1">
          <mxGeometry x="380" y="890" width="120" height="60" as="geometry" />
        </mxCell>
        <mxCell id="LBUSXOYxLL9FHg3XURjK-58" value="" style="edgeStyle=orthogonalEdgeStyle;rounded=0;orthogonalLoop=1;jettySize=auto;html=1;" edge="1" parent="WIyWlLk6GJQsqaUBKTNV-1" source="LBUSXOYxLL9FHg3XURjK-56" target="LBUSXOYxLL9FHg3XURjK-19">
          <mxGeometry relative="1" as="geometry" />
        </mxCell>
        <mxCell id="LBUSXOYxLL9FHg3XURjK-56" value="Fork the repository by making new hacktoberfest repository branch" style="rounded=1;whiteSpace=wrap;html=1;" vertex="1" parent="WIyWlLk6GJQsqaUBKTNV-1">
          <mxGeometry x="530" y="210" width="120" height="60" as="geometry" />
        </mxCell>
        <mxCell id="LBUSXOYxLL9FHg3XURjK-59" value="No" style="text;html=1;strokeColor=none;fillColor=none;align=center;verticalAlign=middle;whiteSpace=wrap;rounded=0;" vertex="1" parent="WIyWlLk6GJQsqaUBKTNV-1">
          <mxGeometry x="400" y="660" width="60" height="30" as="geometry" />
        </mxCell>
        <mxCell id="LBUSXOYxLL9FHg3XURjK-60" value="Yes" style="text;html=1;strokeColor=none;fillColor=none;align=center;verticalAlign=middle;whiteSpace=wrap;rounded=0;" vertex="1" parent="WIyWlLk6GJQsqaUBKTNV-1">
          <mxGeometry x="390" y="750" width="60" height="30" as="geometry" />
        </mxCell>
      </root>
    </mxGraphModel>
  </diagram>
</mxfile>
